<svg viewBox="0 0 600 600" fill="none" xmlns="http://www.w3.org/2000/svg">
  <!-- Grid lines horizontal -->
  <line x1="0" y1="75"  x2="600" y2="75"  stroke="white" stroke-width="0.5"/>
  <line x1="0" y1="150" x2="600" y2="150" stroke="white" stroke-width="0.5"/>
  <line x1="0" y1="225" x2="600" y2="225" stroke="white" stroke-width="0.5"/>
  <line x1="0" y1="300" x2="600" y2="300" stroke="white" stroke-width="0.5"/>
  <line x1="0" y1="375" x2="600" y2="375" stroke="white" stroke-width="0.5"/>
  <line x1="0" y1="450" x2="600" y2="450" stroke="white" stroke-width="0.5"/>
  <line x1="0" y1="525" x2="600" y2="525" stroke="white" stroke-width="0.5"/>
  <!-- Grid lines vertical -->
  <line x1="75"  y1="0" x2="75"  y2="600" stroke="white" stroke-width="0.5"/>
  <line x1="150" y1="0" x2="150" y2="600" stroke="white" stroke-width="0.5"/>
  <line x1="225" y1="0" x2="225" y2="600" stroke="white" stroke-width="0.5"/>
  <line x1="300" y1="0" x2="300" y2="600" stroke="white" stroke-width="0.5"/>
  <line x1="375" y1="0" x2="375" y2="600" stroke="white" stroke-width="0.5"/>
  <line x1="450" y1="0" x2="450" y2="600" stroke="white" stroke-width="0.5"/>
  <line x1="525" y1="0" x2="525" y2="600" stroke="white" stroke-width="0.5"/>
  <!-- Crosshair center -->
  <line x1="250" y1="300" x2="350" y2="300" stroke="white" stroke-width="1"/>
  <line x1="300" y1="250" x2="300" y2="350" stroke="white" stroke-width="1"/>
  <!-- Circles -->
  <circle cx="300" cy="300" r="150" stroke="white" stroke-width="0.5" stroke-dasharray="4 4"/>
  <circle cx="300" cy="300" r="80"  stroke="white" stroke-width="0.5" stroke-dasharray="4 4"/>
  <circle cx="300" cy="300" r="4"   fill="white"/>
  <!-- Corner brackets -->
  <path d="M30,30 L30,70 M30,30 L70,30"   stroke="white" stroke-width="1" stroke-linecap="round"/>
  <path d="M570,30 L570,70 M570,30 L530,30" stroke="white" stroke-width="1" stroke-linecap="round"/>
  <path d="M30,570 L30,530 M30,570 L70,570" stroke="white" stroke-width="1" stroke-linecap="round"/>
  <path d="M570,570 L570,530 M570,570 L530,570" stroke="white" stroke-width="1" stroke-linecap="round"/>
  <!-- Coordinate labels -->
  <text x="308" y="295" fill="white" font-size="10" font-family="monospace" opacity="0.5">BRQ</text>
  <text x="308" y="310" fill="white" font-size="8"  font-family="monospace" opacity="0.4">10°N 75°W</text>
</svg>