<svg xmlns="http://www.w3.org/2000/svg" width="1552" height="1051" viewBox="0 0 1552 1051" fill="none">
<rect width="1552" height="1051" fill="white" fill-opacity="0.04"/>
<rect x="101" width="62" height="52" fill="white" fill-opacity="0.12"/>
<rect x="101" y="52" width="62" height="53" fill="white" fill-opacity="0.12"/>
<rect x="50" y="52" width="51" height="53" fill="white" fill-opacity="0.12"/>
<rect x="50" y="105" width="51" height="53" fill="white" fill-opacity="0.12"/>
<rect x="101" y="105" width="50" height="53" fill="white" fill-opacity="0.12"/>
<rect x="151" y="105" width="49" height="53" fill="white" fill-opacity="0.12"/>
<rect x="200" y="105" width="50" height="53" fill="white" fill-opacity="0.12"/>
<rect x="250" y="105" width="51" height="53" fill="white" fill-opacity="0.12"/>
<rect x="301" y="105" width="50" height="53" fill="white" fill-opacity="0.12"/>
<rect x="351" y="105" width="50" height="53" fill="white" fill-opacity="0.12"/>
<rect x="401" y="105" width="50" height="53" fill="white" fill-opacity="0.12"/>
<rect x="451" y="105" width="51" height="53" fill="white" fill-opacity="0.12"/>
<rect x="502" y="105" width="50" height="53" fill="white" fill-opacity="0.12"/>
<rect x="552" y="105" width="49" height="53" fill="white" fill-opacity="0.12"/>
<rect x="601" y="105" width="50" height="53" fill="white" fill-opacity="0.12"/>
<rect y="105" width="50" height="53" fill="white" fill-opacity="0.12"/>
<rect y="158" width="50" height="51" fill="white" fill-opacity="0.12"/>
<rect x="50" y="158" width="51" height="51" fill="white" fill-opacity="0.12"/>
<rect x="101" y="158" width="50" height="51" fill="white" fill-opacity="0.12"/>
<rect x="151" y="158" width="49" height="51" fill="white" fill-opacity="0.12"/>
<rect x="200" y="158" width="50" height="51" fill="white" fill-opacity="0.12"/>
<rect x="250" y="158" width="51" height="51" fill="white" fill-opacity="0.12"/>
<rect x="301" y="158" width="50" height="51" fill="white" fill-opacity="0.12"/>
<rect x="351" y="158" width="50" height="51" fill="white" fill-opacity="0.12"/>
<rect x="401" y="158" width="50" height="51" fill="white" fill-opacity="0.12"/>
<rect x="451" y="158" width="51" height="51" fill="white" fill-opacity="0.12"/>
<rect x="502" y="158" width="50" height="51" fill="white" fill-opacity="0.12"/>
<rect x="552" y="158" width="49" height="51" fill="white" fill-opacity="0.12"/>
<rect x="601" y="158" width="50" height="51" fill="white" fill-opacity="0.12"/>
<rect x="651" y="158" width="51" height="51" fill="white" fill-opacity="0.12"/>
<rect x="702" y="158" width="50" height="51" fill="white" fill-opacity="0.12"/>
<rect x="752" y="158" width="50" height="51" fill="white" fill-opacity="0.12"/>
<rect x="802" y="158" width="51" height="51" fill="white" fill-opacity="0.12"/>
<rect x="853" y="158" width="50" height="51" fill="white" fill-opacity="0.12"/>
<rect x="903" y="158" width="50" height="51" fill="white" fill-opacity="0.12"/>
<rect x="953" y="158" width="49" height="51" fill="white" fill-opacity="0.12"/>
<rect x="1002" y="158" width="51" height="51" fill="white" fill-opacity="0.12"/>
<rect x="1002" y="105" width="51" height="53" fill="white" fill-opacity="0.12"/>
<rect x="1053" y="105" width="50" height="53" fill="white" fill-opacity="0.12"/>
<rect x="1103" y="105" width="50" height="53" fill="white" fill-opacity="0.12"/>
<rect x="1153" y="105" width="50" height="53" fill="white" fill-opacity="0.12"/>
<rect x="1203" y="105" width="51" height="53" fill="white" fill-opacity="0.12"/>
<rect x="1254" y="105" width="50" height="53" fill="white" fill-opacity="0.12"/>
<rect x="1304" y="105" width="50" height="53" fill="white" fill-opacity="0.12"/>
<rect x="1352" y="105" width="50" height="53" fill="white" fill-opacity="0.12"/>
<rect x="1402" y="105" width="50" height="53" fill="white" fill-opacity="0.12"/>
<rect x="1254" y="52" width="50" height="53" fill="white" fill-opacity="0.12"/>
<rect x="953" y="105" width="49" height="53" fill="white" fill-opacity="0.12"/>
<rect x="1004" y="52" width="50" height="53" fill="white" fill-opacity="0.12"/>
<rect x="1052" y="158" width="50" height="51" fill="white" fill-opacity="0.12"/>
<rect x="1102" y="158" width="50" height="51" fill="white" fill-opacity="0.12"/>
<rect x="1152" y="158" width="50" height="51" fill="white" fill-opacity="0.12"/>
<rect x="1202" y="158" width="50" height="51" fill="white" fill-opacity="0.12"/>
<rect x="1252" y="158" width="50" height="51" fill="white" fill-opacity="0.12"/>
<rect x="1302" y="158" width="51" height="51" fill="white" fill-opacity="0.12"/>
<rect x="1352" y="158" width="50" height="51" fill="white" fill-opacity="0.12"/>
<rect x="1402" y="158" width="50" height="51" fill="white" fill-opacity="0.12"/>
<rect x="1451" y="158" width="51" height="51" fill="white" fill-opacity="0.12"/>
<rect x="50" y="209" width="51" height="54" fill="white" fill-opacity="0.12"/>
<rect x="101" y="209" width="50" height="54" fill="white" fill-opacity="0.12"/>
<rect x="151" y="209" width="49" height="54" fill="white" fill-opacity="0.12"/>
<rect x="200" y="209" width="50" height="54" fill="white" fill-opacity="0.12"/>
<rect x="250" y="209" width="51" height="54" fill="white" fill-opacity="0.12"/>
<rect x="301" y="209" width="50" height="54" fill="white" fill-opacity="0.12"/>
<rect x="351" y="209" width="50" height="54" fill="white" fill-opacity="0.12"/>
<rect x="401" y="209" width="50" height="54" fill="white" fill-opacity="0.12"/>
<rect x="451" y="209" width="51" height="54" fill="white" fill-opacity="0.12"/>
<rect x="502" y="209" width="50" height="54" fill="white" fill-opacity="0.12"/>
<rect x="552" y="209" width="49" height="54" fill="white" fill-opacity="0.12"/>
<rect x="601" y="209" width="50" height="54" fill="white" fill-opacity="0.12"/>
<rect x="651" y="209" width="51" height="54" fill="white" fill-opacity="0.12"/>
<rect x="702" y="209" width="50" height="54" fill="white" fill-opacity="0.12"/>
<rect x="752" y="209" width="50" height="54" fill="white" fill-opacity="0.12"/>
<rect x="802" y="209" width="51" height="54" fill="white" fill-opacity="0.12"/>
<rect x="853" y="209" width="50" height="54" fill="white" fill-opacity="0.12"/>
<rect x="903" y="209" width="50" height="54" fill="white" fill-opacity="0.12"/>
<rect x="953" y="209" width="49" height="54" fill="white" fill-opacity="0.12"/>
<rect x="1002" y="209" width="51" height="54" fill="white" fill-opacity="0.12"/>
<rect x="1052" y="209" width="50" height="54" fill="white" fill-opacity="0.12"/>
<rect x="1102" y="209" width="50" height="54" fill="white" fill-opacity="0.12"/>
<rect x="1152" y="209" width="50" height="54" fill="white" fill-opacity="0.12"/>
<rect x="1202" y="209" width="50" height="54" fill="white" fill-opacity="0.12"/>
<rect x="1252" y="209" width="50" height="54" fill="white" fill-opacity="0.12"/>
<rect x="1302" y="209" width="51" height="54" fill="white" fill-opacity="0.12"/>
<rect x="1352" y="209" width="50" height="54" fill="white" fill-opacity="0.12"/>
<rect x="1402" y="209" width="50" height="54" fill="white" fill-opacity="0.12"/>
<rect x="50" y="263" width="51" height="52" fill="white" fill-opacity="0.12"/>
<rect x="101" y="263" width="50" height="52" fill="white" fill-opacity="0.12"/>
<rect x="151" y="263" width="49" height="52" fill="white" fill-opacity="0.12"/>
<rect x="200" y="263" width="50" height="52" fill="white" fill-opacity="0.12"/>
<rect x="250" y="263" width="51" height="52" fill="white" fill-opacity="0.12"/>
<rect x="301" y="263" width="50" height="52" fill="white" fill-opacity="0.12"/>
<rect x="351" y="263" width="50" height="52" fill="white" fill-opacity="0.12"/>
<rect x="401" y="263" width="50" height="52" fill="white" fill-opacity="0.12"/>
<rect x="451" y="263" width="51" height="52" fill="white" fill-opacity="0.12"/>
<rect x="502" y="263" width="50" height="52" fill="white" fill-opacity="0.12"/>
<rect x="552" y="263" width="49" height="52" fill="white" fill-opacity="0.12"/>
<rect x="601" y="263" width="50" height="52" fill="white" fill-opacity="0.12"/>
<rect x="651" y="263" width="51" height="52" fill="white" fill-opacity="0.12"/>
<rect x="702" y="263" width="50" height="52" fill="white" fill-opacity="0.12"/>
<rect x="752" y="263" width="50" height="52" fill="white" fill-opacity="0.12"/>
<rect x="802" y="263" width="51" height="52" fill="white" fill-opacity="0.12"/>
<rect x="853" y="263" width="50" height="52" fill="white" fill-opacity="0.12"/>
<rect x="903" y="263" width="50" height="52" fill="white" fill-opacity="0.12"/>
<rect x="953" y="263" width="49" height="52" fill="white" fill-opacity="0.12"/>
<rect x="1002" y="263" width="51" height="52" fill="white" fill-opacity="0.12"/>
<rect x="1052" y="263" width="50" height="52" fill="white" fill-opacity="0.12"/>
<rect x="1102" y="263" width="50" height="52" fill="white" fill-opacity="0.12"/>
<rect x="1152" y="263" width="50" height="52" fill="white" fill-opacity="0.12"/>
<rect x="1202" y="263" width="50" height="52" fill="white" fill-opacity="0.12"/>
<rect x="1252" y="263" width="50" height="52" fill="white" fill-opacity="0.12"/>
<rect x="1302" y="263" width="51" height="52" fill="white" fill-opacity="0.12"/>
<rect x="1352" y="263" width="50" height="52" fill="white" fill-opacity="0.12"/>
<rect x="1402" y="263" width="50" height="52" fill="white" fill-opacity="0.12"/>
<rect x="50" y="315" width="51" height="53" fill="white" fill-opacity="0.12"/>
<rect x="101" y="315" width="50" height="53" fill="white" fill-opacity="0.12"/>
<rect x="151" y="315" width="49" height="53" fill="white" fill-opacity="0.12"/>
<rect x="200" y="315" width="50" height="53" fill="white" fill-opacity="0.12"/>
<rect x="250" y="315" width="51" height="53" fill="white" fill-opacity="0.12"/>
<rect x="301" y="315" width="50" height="53" fill="white" fill-opacity="0.12"/>
<rect x="351" y="315" width="50" height="53" fill="white" fill-opacity="0.12"/>
<rect x="401" y="315" width="50" height="53" fill="white" fill-opacity="0.12"/>
<rect x="451" y="315" width="51" height="53" fill="white" fill-opacity="0.12"/>
<rect x="502" y="315" width="50" height="53" fill="white" fill-opacity="0.12"/>
<rect x="552" y="315" width="49" height="53" fill="white" fill-opacity="0.12"/>
<rect x="601" y="315" width="50" height="53" fill="white" fill-opacity="0.12"/>
<rect x="651" y="315" width="51" height="53" fill="white" fill-opacity="0.12"/>
<rect x="702" y="315" width="50" height="53" fill="white" fill-opacity="0.12"/>
<rect x="752" y="315" width="50" height="53" fill="white" fill-opacity="0.12"/>
<rect x="802" y="315" width="51" height="53" fill="white" fill-opacity="0.12"/>
<rect x="853" y="315" width="50" height="53" fill="white" fill-opacity="0.12"/>
<rect x="903" y="315" width="50" height="53" fill="white" fill-opacity="0.12"/>
<rect x="953" y="315" width="49" height="53" fill="white" fill-opacity="0.12"/>
<rect x="1002" y="315" width="51" height="53" fill="white" fill-opacity="0.12"/>
<rect x="1052" y="315" width="50" height="53" fill="white" fill-opacity="0.12"/>
<rect x="1102" y="315" width="50" height="53" fill="white" fill-opacity="0.12"/>
<rect x="1152" y="315" width="50" height="53" fill="white" fill-opacity="0.12"/>
<rect x="1202" y="315" width="50" height="53" fill="white" fill-opacity="0.12"/>
<rect x="1252" y="315" width="50" height="53" fill="white" fill-opacity="0.12"/>
<rect x="1302" y="315" width="51" height="53" fill="white" fill-opacity="0.12"/>
<rect x="1352" y="315" width="50" height="53" fill="white" fill-opacity="0.12"/>
<rect x="1402" y="315" width="50" height="53" fill="white" fill-opacity="0.12"/>
<rect y="315" width="50" height="53" fill="white" fill-opacity="0.12"/>
<rect y="368" width="50" height="53" fill="white" fill-opacity="0.12"/>
<rect x="50" y="368" width="51" height="53" fill="white" fill-opacity="0.12"/>
<rect x="101" y="368" width="50" height="53" fill="white" fill-opacity="0.12"/>
<rect x="151" y="368" width="49" height="53" fill="white" fill-opacity="0.12"/>
<rect x="200" y="368" width="50" height="53" fill="white" fill-opacity="0.12"/>
<rect x="250" y="368" width="51" height="53" fill="white" fill-opacity="0.12"/>
<rect x="301" y="368" width="50" height="53" fill="white" fill-opacity="0.12"/>
<rect x="351" y="368" width="50" height="53" fill="white" fill-opacity="0.12"/>
<rect x="401" y="368" width="50" height="53" fill="white" fill-opacity="0.12"/>
<rect x="451" y="368" width="51" height="53" fill="white" fill-opacity="0.12"/>
<rect x="502" y="368" width="50" height="53" fill="white" fill-opacity="0.12"/>
<rect x="552" y="368" width="49" height="53" fill="white" fill-opacity="0.12"/>
<rect x="601" y="368" width="50" height="53" fill="white" fill-opacity="0.12"/>
<rect x="651" y="368" width="51" height="53" fill="white" fill-opacity="0.12"/>
<rect x="702" y="368" width="50" height="53" fill="white" fill-opacity="0.12"/>
<rect x="752" y="368" width="50" height="53" fill="white" fill-opacity="0.12"/>
<rect x="802" y="368" width="51" height="53" fill="white" fill-opacity="0.12"/>
<rect x="853" y="368" width="50" height="53" fill="white" fill-opacity="0.12"/>
<rect x="903" y="368" width="50" height="53" fill="white" fill-opacity="0.12"/>
<rect x="953" y="368" width="49" height="53" fill="white" fill-opacity="0.12"/>
<rect x="1002" y="368" width="51" height="53" fill="white" fill-opacity="0.12"/>
<rect x="1052" y="368" width="50" height="53" fill="white" fill-opacity="0.12"/>
<rect x="1102" y="368" width="50" height="53" fill="white" fill-opacity="0.12"/>
<rect x="1152" y="368" width="50" height="53" fill="white" fill-opacity="0.12"/>
<rect x="1202" y="368" width="50" height="53" fill="white" fill-opacity="0.12"/>
<rect x="1252" y="368" width="50" height="53" fill="white" fill-opacity="0.12"/>
<rect x="1302" y="368" width="51" height="53" fill="white" fill-opacity="0.12"/>
<rect x="1352" y="368" width="50" height="53" fill="white" fill-opacity="0.12"/>
<rect x="1402" y="368" width="50" height="53" fill="white" fill-opacity="0.12"/>
<rect y="421" width="50" height="52" fill="white" fill-opacity="0.12"/>
<rect x="50" y="421" width="51" height="52" fill="white" fill-opacity="0.12"/>
<rect x="101" y="421" width="50" height="52" fill="white" fill-opacity="0.12"/>
<rect x="151" y="421" width="49" height="52" fill="white" fill-opacity="0.12"/>
<rect x="200" y="421" width="50" height="52" fill="white" fill-opacity="0.12"/>
<rect x="250" y="421" width="51" height="52" fill="white" fill-opacity="0.12"/>
<rect x="301" y="421" width="50" height="52" fill="white" fill-opacity="0.12"/>
<rect x="351" y="421" width="50" height="52" fill="white" fill-opacity="0.12"/>
<rect x="401" y="421" width="50" height="52" fill="white" fill-opacity="0.12"/>
<rect x="451" y="421" width="51" height="52" fill="white" fill-opacity="0.12"/>
<rect x="502" y="421" width="50" height="52" fill="white" fill-opacity="0.12"/>
<rect x="552" y="421" width="49" height="52" fill="white" fill-opacity="0.12"/>
<rect x="601" y="421" width="50" height="52" fill="white" fill-opacity="0.12"/>
<rect x="651" y="421" width="51" height="52" fill="white" fill-opacity="0.12"/>
<rect x="702" y="421" width="50" height="52" fill="white" fill-opacity="0.12"/>
<rect x="752" y="421" width="50" height="52" fill="white" fill-opacity="0.12"/>
<rect x="802" y="421" width="51" height="52" fill="white" fill-opacity="0.12"/>
<rect x="853" y="421" width="50" height="52" fill="white" fill-opacity="0.12"/>
<rect x="903" y="421" width="50" height="52" fill="white" fill-opacity="0.12"/>
<rect x="953" y="421" width="49" height="52" fill="white" fill-opacity="0.12"/>
<rect x="1002" y="421" width="51" height="52" fill="white" fill-opacity="0.12"/>
<rect x="1052" y="421" width="50" height="52" fill="white" fill-opacity="0.12"/>
<rect x="1102" y="421" width="50" height="52" fill="white" fill-opacity="0.12"/>
<rect x="1152" y="421" width="50" height="52" fill="white" fill-opacity="0.12"/>
<rect x="1202" y="421" width="50" height="52" fill="white" fill-opacity="0.12"/>
<rect x="1252" y="421" width="50" height="52" fill="white" fill-opacity="0.12"/>
<rect x="1302" y="421" width="51" height="52" fill="white" fill-opacity="0.12"/>
<rect x="1352" y="421" width="50" height="52" fill="white" fill-opacity="0.12"/>
<rect x="1402" y="421" width="50" height="52" fill="white" fill-opacity="0.12"/>
<rect y="473" width="50" height="53" fill="white" fill-opacity="0.12"/>
<rect x="50" y="473" width="51" height="53" fill="white" fill-opacity="0.12"/>
<rect x="101" y="473" width="50" height="53" fill="white" fill-opacity="0.12"/>
<rect x="151" y="473" width="49" height="53" fill="white" fill-opacity="0.12"/>
<rect x="200" y="473" width="50" height="53" fill="white" fill-opacity="0.12"/>
<rect x="250" y="473" width="51" height="53" fill="white" fill-opacity="0.12"/>
<rect x="301" y="473" width="50" height="53" fill="white" fill-opacity="0.12"/>
<rect x="351" y="473" width="50" height="53" fill="white" fill-opacity="0.12"/>
<rect x="401" y="473" width="50" height="53" fill="white" fill-opacity="0.12"/>
<rect x="451" y="473" width="51" height="53" fill="white" fill-opacity="0.12"/>
<rect x="502" y="473" width="50" height="53" fill="white" fill-opacity="0.12"/>
<rect x="552" y="473" width="49" height="53" fill="white" fill-opacity="0.12"/>
<rect x="601" y="473" width="50" height="53" fill="white" fill-opacity="0.12"/>
<rect x="651" y="473" width="51" height="53" fill="white" fill-opacity="0.12"/>
<rect x="702" y="473" width="50" height="53" fill="white" fill-opacity="0.12"/>
<rect x="752" y="473" width="50" height="53" fill="white" fill-opacity="0.12"/>
<rect x="802" y="473" width="51" height="53" fill="white" fill-opacity="0.12"/>
<rect x="853" y="473" width="50" height="53" fill="white" fill-opacity="0.12"/>
<rect x="903" y="473" width="50" height="53" fill="white" fill-opacity="0.12"/>
<rect x="953" y="473" width="49" height="53" fill="white" fill-opacity="0.12"/>
<rect x="1002" y="473" width="51" height="53" fill="white" fill-opacity="0.12"/>
<rect x="1052" y="473" width="50" height="53" fill="white" fill-opacity="0.12"/>
<rect x="1102" y="473" width="50" height="53" fill="white" fill-opacity="0.12"/>
<rect x="1152" y="473" width="50" height="53" fill="white" fill-opacity="0.12"/>
<rect x="1202" y="473" width="50" height="53" fill="white" fill-opacity="0.12"/>
<rect x="1252" y="473" width="50" height="53" fill="white" fill-opacity="0.12"/>
<rect x="1302" y="473" width="51" height="53" fill="white" fill-opacity="0.12"/>
<rect x="1352" y="473" width="50" height="53" fill="white" fill-opacity="0.12"/>
<rect x="1402" y="473" width="50" height="53" fill="white" fill-opacity="0.12"/>
<rect y="526" width="50" height="52" fill="white" fill-opacity="0.12"/>
<rect x="50" y="526" width="51" height="52" fill="white" fill-opacity="0.12"/>
<rect x="101" y="526" width="50" height="52" fill="white" fill-opacity="0.12"/>
<rect x="151" y="526" width="49" height="52" fill="white" fill-opacity="0.12"/>
<rect x="200" y="526" width="50" height="52" fill="white" fill-opacity="0.12"/>
<rect x="250" y="526" width="51" height="52" fill="white" fill-opacity="0.12"/>
<rect x="301" y="526" width="50" height="52" fill="white" fill-opacity="0.12"/>
<rect x="351" y="526" width="50" height="52" fill="white" fill-opacity="0.12"/>
<rect x="401" y="526" width="50" height="52" fill="white" fill-opacity="0.12"/>
<rect x="451" y="526" width="51" height="52" fill="white" fill-opacity="0.12"/>
<rect x="502" y="526" width="50" height="52" fill="white" fill-opacity="0.12"/>
<rect x="552" y="526" width="49" height="52" fill="white" fill-opacity="0.12"/>
<rect x="601" y="526" width="50" height="52" fill="white" fill-opacity="0.12"/>
<rect x="651" y="526" width="51" height="52" fill="white" fill-opacity="0.12"/>
<rect x="702" y="526" width="50" height="52" fill="white" fill-opacity="0.12"/>
<rect x="752" y="526" width="50" height="52" fill="white" fill-opacity="0.12"/>
<rect x="802" y="526" width="51" height="52" fill="white" fill-opacity="0.12"/>
<rect x="853" y="526" width="50" height="52" fill="white" fill-opacity="0.12"/>
<rect x="903" y="526" width="50" height="52" fill="white" fill-opacity="0.12"/>
<rect x="953" y="526" width="49" height="52" fill="white" fill-opacity="0.12"/>
<rect x="1002" y="526" width="51" height="52" fill="white" fill-opacity="0.12"/>
<rect x="1052" y="526" width="50" height="52" fill="white" fill-opacity="0.12"/>
<rect x="1102" y="526" width="50" height="52" fill="white" fill-opacity="0.12"/>
<rect x="1152" y="526" width="50" height="52" fill="white" fill-opacity="0.12"/>
<rect x="1202" y="526" width="50" height="52" fill="white" fill-opacity="0.12"/>
<rect x="1252" y="526" width="50" height="52" fill="white" fill-opacity="0.12"/>
<rect x="1302" y="526" width="51" height="52" fill="white" fill-opacity="0.12"/>
<rect x="1352" y="526" width="50" height="52" fill="white" fill-opacity="0.12"/>
<rect x="1402" y="526" width="50" height="52" fill="white" fill-opacity="0.12"/>
<rect x="50" y="578" width="51" height="52" fill="white" fill-opacity="0.12"/>
<rect x="101" y="578" width="50" height="52" fill="white" fill-opacity="0.12"/>
<rect x="151" y="578" width="49" height="52" fill="white" fill-opacity="0.12"/>
<rect x="200" y="578" width="50" height="52" fill="white" fill-opacity="0.12"/>
<rect x="250" y="578" width="51" height="52" fill="white" fill-opacity="0.12"/>
<rect x="301" y="578" width="50" height="52" fill="white" fill-opacity="0.12"/>
<rect x="351" y="578" width="50" height="52" fill="white" fill-opacity="0.12"/>
<rect x="401" y="578" width="50" height="52" fill="white" fill-opacity="0.12"/>
<rect x="451" y="578" width="51" height="52" fill="white" fill-opacity="0.12"/>
<rect x="502" y="578" width="50" height="52" fill="white" fill-opacity="0.12"/>
<rect x="552" y="578" width="49" height="52" fill="white" fill-opacity="0.12"/>
<rect x="601" y="578" width="50" height="52" fill="white" fill-opacity="0.12"/>
<rect x="651" y="578" width="51" height="52" fill="white" fill-opacity="0.12"/>
<rect x="702" y="578" width="50" height="52" fill="white" fill-opacity="0.12"/>
<rect x="752" y="578" width="50" height="52" fill="white" fill-opacity="0.12"/>
<rect x="802" y="578" width="51" height="52" fill="white" fill-opacity="0.12"/>
<rect x="853" y="578" width="50" height="52" fill="white" fill-opacity="0.12"/>
<rect x="903" y="578" width="50" height="52" fill="white" fill-opacity="0.12"/>
<rect x="953" y="578" width="49" height="52" fill="white" fill-opacity="0.12"/>
<rect x="1002" y="578" width="51" height="52" fill="white" fill-opacity="0.12"/>
<rect x="1052" y="578" width="50" height="52" fill="white" fill-opacity="0.12"/>
<rect x="1102" y="578" width="50" height="52" fill="white" fill-opacity="0.12"/>
<rect x="1152" y="578" width="50" height="52" fill="white" fill-opacity="0.12"/>
<rect x="1202" y="578" width="50" height="52" fill="white" fill-opacity="0.12"/>
<rect x="1252" y="578" width="50" height="52" fill="white" fill-opacity="0.12"/>
<rect x="1302" y="578" width="51" height="52" fill="white" fill-opacity="0.12"/>
<rect x="1352" y="578" width="50" height="52" fill="white" fill-opacity="0.12"/>
<rect x="1402" y="578" width="50" height="52" fill="white" fill-opacity="0.12"/>
<rect x="50" y="630" width="51" height="53" fill="white" fill-opacity="0.12"/>
<rect x="101" y="630" width="50" height="53" fill="white" fill-opacity="0.12"/>
<rect x="151" y="630" width="49" height="53" fill="white" fill-opacity="0.12"/>
<rect x="200" y="630" width="50" height="53" fill="white" fill-opacity="0.12"/>
<rect x="250" y="630" width="51" height="53" fill="white" fill-opacity="0.12"/>
<rect x="301" y="630" width="50" height="53" fill="white" fill-opacity="0.12"/>
<rect x="351" y="630" width="50" height="53" fill="white" fill-opacity="0.12"/>
<rect x="401" y="630" width="50" height="53" fill="white" fill-opacity="0.12"/>
<rect x="451" y="630" width="51" height="53" fill="white" fill-opacity="0.12"/>
<rect x="502" y="630" width="50" height="53" fill="white" fill-opacity="0.12"/>
<rect x="552" y="630" width="49" height="53" fill="white" fill-opacity="0.12"/>
<rect x="601" y="630" width="50" height="53" fill="white" fill-opacity="0.12"/>
<rect x="651" y="630" width="51" height="53" fill="white" fill-opacity="0.12"/>
<rect x="702" y="630" width="50" height="53" fill="white" fill-opacity="0.12"/>
<rect x="752" y="630" width="50" height="53" fill="white" fill-opacity="0.12"/>
<rect x="802" y="630" width="51" height="53" fill="white" fill-opacity="0.12"/>
<rect x="853" y="630" width="50" height="53" fill="white" fill-opacity="0.12"/>
<rect x="903" y="630" width="50" height="53" fill="white" fill-opacity="0.12"/>
<rect x="953" y="630" width="49" height="53" fill="white" fill-opacity="0.12"/>
<rect x="1002" y="630" width="51" height="53" fill="white" fill-opacity="0.12"/>
<rect x="1052" y="630" width="50" height="53" fill="white" fill-opacity="0.12"/>
<rect x="1102" y="630" width="50" height="53" fill="white" fill-opacity="0.12"/>
<rect x="1152" y="630" width="50" height="53" fill="white" fill-opacity="0.12"/>
<rect x="1202" y="630" width="50" height="53" fill="white" fill-opacity="0.12"/>
<rect x="1252" y="630" width="50" height="53" fill="white" fill-opacity="0.12"/>
<rect x="1302" y="630" width="51" height="53" fill="white" fill-opacity="0.12"/>
<rect x="1352" y="630" width="50" height="53" fill="white" fill-opacity="0.12"/>
<rect x="1402" y="630" width="50" height="53" fill="white" fill-opacity="0.12"/>
<rect y="630" width="50" height="53" fill="white" fill-opacity="0.12"/>
<rect y="683" width="50" height="53" fill="white" fill-opacity="0.12"/>
<rect x="50" y="683" width="51" height="53" fill="white" fill-opacity="0.12"/>
<rect x="101" y="683" width="50" height="53" fill="white" fill-opacity="0.12"/>
<rect x="151" y="683" width="49" height="53" fill="white" fill-opacity="0.12"/>
<rect x="200" y="683" width="50" height="53" fill="white" fill-opacity="0.12"/>
<rect x="250" y="683" width="51" height="53" fill="white" fill-opacity="0.12"/>
<rect x="301" y="683" width="50" height="53" fill="white" fill-opacity="0.12"/>
<rect x="351" y="683" width="50" height="53" fill="white" fill-opacity="0.12"/>
<rect x="401" y="683" width="50" height="53" fill="white" fill-opacity="0.12"/>
<rect x="451" y="683" width="51" height="53" fill="white" fill-opacity="0.12"/>
<rect x="502" y="683" width="50" height="53" fill="white" fill-opacity="0.12"/>
<rect x="552" y="683" width="49" height="53" fill="white" fill-opacity="0.12"/>
<rect x="601" y="683" width="50" height="53" fill="white" fill-opacity="0.12"/>
<rect x="651" y="683" width="51" height="53" fill="white" fill-opacity="0.12"/>
<rect x="702" y="683" width="50" height="53" fill="white" fill-opacity="0.12"/>
<rect x="752" y="683" width="50" height="53" fill="white" fill-opacity="0.12"/>
<rect x="802" y="683" width="51" height="53" fill="white" fill-opacity="0.12"/>
<rect x="853" y="683" width="50" height="53" fill="white" fill-opacity="0.12"/>
<rect x="903" y="683" width="50" height="53" fill="white" fill-opacity="0.12"/>
<rect x="953" y="683" width="49" height="53" fill="white" fill-opacity="0.12"/>
<rect x="1002" y="683" width="51" height="53" fill="white" fill-opacity="0.12"/>
<rect x="1052" y="683" width="50" height="53" fill="white" fill-opacity="0.12"/>
<rect x="1102" y="683" width="50" height="53" fill="white" fill-opacity="0.12"/>
<rect x="1152" y="683" width="50" height="53" fill="white" fill-opacity="0.12"/>
<rect x="1202" y="683" width="50" height="53" fill="white" fill-opacity="0.12"/>
<rect x="1252" y="683" width="50" height="53" fill="white" fill-opacity="0.12"/>
<rect x="1302" y="683" width="51" height="53" fill="white" fill-opacity="0.12"/>
<rect x="1352" y="683" width="50" height="53" fill="white" fill-opacity="0.12"/>
<rect x="1402" y="683" width="50" height="53" fill="white" fill-opacity="0.12"/>
<rect x="1451" y="683" width="51" height="53" fill="white" fill-opacity="0.12"/>
<rect x="50" y="736" width="51" height="52" fill="white" fill-opacity="0.12"/>
<rect x="101" y="736" width="50" height="52" fill="white" fill-opacity="0.12"/>
<rect x="151" y="736" width="49" height="52" fill="white" fill-opacity="0.12"/>
<rect x="200" y="736" width="50" height="52" fill="white" fill-opacity="0.12"/>
<rect x="250" y="736" width="51" height="52" fill="white" fill-opacity="0.12"/>
<rect x="301" y="736" width="50" height="52" fill="white" fill-opacity="0.12"/>
<rect x="351" y="736" width="50" height="52" fill="white" fill-opacity="0.12"/>
<rect x="401" y="736" width="50" height="52" fill="white" fill-opacity="0.12"/>
<rect x="451" y="736" width="51" height="52" fill="white" fill-opacity="0.12"/>
<rect x="502" y="736" width="50" height="52" fill="white" fill-opacity="0.12"/>
<rect x="552" y="736" width="49" height="52" fill="white" fill-opacity="0.12"/>
<rect x="601" y="736" width="50" height="52" fill="white" fill-opacity="0.12"/>
<rect x="651" y="736" width="51" height="52" fill="white" fill-opacity="0.12"/>
<rect x="702" y="736" width="50" height="52" fill="white" fill-opacity="0.12"/>
<rect x="752" y="736" width="50" height="52" fill="white" fill-opacity="0.12"/>
<rect x="802" y="736" width="51" height="52" fill="white" fill-opacity="0.12"/>
<rect x="853" y="736" width="50" height="52" fill="white" fill-opacity="0.12"/>
<rect x="903" y="736" width="50" height="52" fill="white" fill-opacity="0.12"/>
<rect x="953" y="736" width="49" height="52" fill="white" fill-opacity="0.12"/>
<rect x="1002" y="736" width="51" height="52" fill="white" fill-opacity="0.12"/>
<rect x="1052" y="736" width="50" height="52" fill="white" fill-opacity="0.12"/>
<rect x="1102" y="736" width="50" height="52" fill="white" fill-opacity="0.12"/>
<rect x="1152" y="736" width="50" height="52" fill="white" fill-opacity="0.12"/>
<rect x="1202" y="736" width="50" height="52" fill="white" fill-opacity="0.12"/>
<rect x="1252" y="736" width="50" height="52" fill="white" fill-opacity="0.12"/>
<rect x="1302" y="736" width="51" height="52" fill="white" fill-opacity="0.12"/>
<rect x="1352" y="736" width="50" height="52" fill="white" fill-opacity="0.12"/>
<rect x="1402" y="736" width="50" height="52" fill="white" fill-opacity="0.12"/>
<rect x="1451" y="736" width="51" height="52" fill="white" fill-opacity="0.12"/>
<rect x="50" y="788" width="51" height="54" fill="white" fill-opacity="0.12"/>
<rect x="101" y="788" width="50" height="54" fill="white" fill-opacity="0.12"/>
<rect x="151" y="788" width="49" height="54" fill="white" fill-opacity="0.12"/>
<rect x="200" y="788" width="50" height="54" fill="white" fill-opacity="0.12"/>
<rect x="250" y="788" width="51" height="54" fill="white" fill-opacity="0.12"/>
<rect x="301" y="788" width="50" height="54" fill="white" fill-opacity="0.12"/>
<rect x="351" y="788" width="50" height="54" fill="white" fill-opacity="0.12"/>
<rect x="401" y="788" width="50" height="54" fill="white" fill-opacity="0.12"/>
<rect x="451" y="788" width="51" height="54" fill="white" fill-opacity="0.12"/>
<rect x="502" y="788" width="50" height="54" fill="white" fill-opacity="0.12"/>
<rect x="552" y="788" width="49" height="54" fill="white" fill-opacity="0.12"/>
<rect x="601" y="788" width="50" height="54" fill="white" fill-opacity="0.12"/>
<rect x="651" y="788" width="51" height="54" fill="white" fill-opacity="0.12"/>
<rect x="702" y="788" width="50" height="54" fill="white" fill-opacity="0.12"/>
<rect x="752" y="788" width="50" height="54" fill="white" fill-opacity="0.12"/>
<rect x="802" y="788" width="51" height="54" fill="white" fill-opacity="0.12"/>
<rect x="853" y="788" width="50" height="54" fill="white" fill-opacity="0.12"/>
<rect x="903" y="788" width="50" height="54" fill="white" fill-opacity="0.12"/>
<rect x="953" y="788" width="49" height="54" fill="white" fill-opacity="0.12"/>
<rect x="1002" y="788" width="51" height="54" fill="white" fill-opacity="0.12"/>
<rect x="1052" y="788" width="50" height="54" fill="white" fill-opacity="0.12"/>
<rect x="1102" y="788" width="50" height="54" fill="white" fill-opacity="0.12"/>
<rect x="1152" y="788" width="50" height="54" fill="white" fill-opacity="0.12"/>
<rect x="1202" y="788" width="50" height="54" fill="white" fill-opacity="0.12"/>
<rect x="1252" y="788" width="50" height="54" fill="white" fill-opacity="0.12"/>
<rect x="1302" y="788" width="51" height="54" fill="white" fill-opacity="0.12"/>
<rect x="1352" y="788" width="50" height="54" fill="white" fill-opacity="0.12"/>
<rect x="1402" y="788" width="50" height="54" fill="white" fill-opacity="0.12"/>
<rect x="1451" y="788" width="51" height="54" fill="white" fill-opacity="0.12"/>
<rect x="50" y="842" width="51" height="51" fill="white" fill-opacity="0.12"/>
<rect x="101" y="842" width="50" height="51" fill="white" fill-opacity="0.12"/>
<rect x="101" y="893" width="50" height="53" fill="white" fill-opacity="0.12"/>
<rect x="151" y="842" width="49" height="51" fill="white" fill-opacity="0.12"/>
<rect x="200" y="842" width="50" height="51" fill="white" fill-opacity="0.12"/>
<rect x="250" y="842" width="51" height="51" fill="white" fill-opacity="0.12"/>
<rect x="301" y="842" width="50" height="51" fill="white" fill-opacity="0.12"/>
<rect x="301" y="893" width="50" height="53" fill="white" fill-opacity="0.12"/>
<rect x="351" y="842" width="50" height="51" fill="white" fill-opacity="0.12"/>
<rect x="401" y="842" width="50" height="51" fill="white" fill-opacity="0.12"/>
<rect x="451" y="842" width="51" height="51" fill="white" fill-opacity="0.12"/>
<rect x="502" y="842" width="50" height="51" fill="white" fill-opacity="0.12"/>
<rect x="552" y="842" width="49" height="51" fill="white" fill-opacity="0.12"/>
<rect x="552" y="893" width="49" height="53" fill="white" fill-opacity="0.12"/>
<rect x="601" y="842" width="50" height="51" fill="white" fill-opacity="0.12"/>
<rect x="601" y="893" width="50" height="53" fill="white" fill-opacity="0.12"/>
<rect x="651" y="842" width="51" height="51" fill="white" fill-opacity="0.12"/>
<rect x="702" y="842" width="50" height="51" fill="white" fill-opacity="0.12"/>
<rect x="752" y="842" width="50" height="51" fill="white" fill-opacity="0.12"/>
<rect x="802" y="842" width="51" height="51" fill="white" fill-opacity="0.12"/>
<rect x="853" y="842" width="50" height="51" fill="white" fill-opacity="0.12"/>
<rect x="903" y="842" width="50" height="51" fill="white" fill-opacity="0.12"/>
<rect x="953" y="842" width="49" height="51" fill="white" fill-opacity="0.12"/>
<rect x="1002" y="842" width="51" height="51" fill="white" fill-opacity="0.12"/>
<rect x="1052" y="842" width="50" height="51" fill="white" fill-opacity="0.12"/>
<rect x="1102" y="842" width="50" height="51" fill="white" fill-opacity="0.12"/>
<rect x="1152" y="842" width="50" height="51" fill="white" fill-opacity="0.12"/>
<rect x="1202" y="842" width="50" height="51" fill="white" fill-opacity="0.12"/>
<rect x="1252" y="842" width="50" height="51" fill="white" fill-opacity="0.12"/>
<rect x="1302" y="842" width="51" height="51" fill="white" fill-opacity="0.12"/>
<rect x="1352" y="842" width="50" height="51" fill="white" fill-opacity="0.12"/>
<rect x="1402" y="842" width="50" height="51" fill="white" fill-opacity="0.12"/>
<rect x="1403" y="893" width="50" height="53" fill="white" fill-opacity="0.12"/>
<rect x="1402" y="946" width="50" height="53" fill="white" fill-opacity="0.12"/>
<rect x="1451" y="946" width="51" height="53" fill="white" fill-opacity="0.12"/>
<rect x="1451" y="842" width="51" height="51" fill="white" fill-opacity="0.12"/>
<rect x="1452" y="893" width="51" height="53" fill="white" fill-opacity="0.12"/>
<rect x="50" y="893" width="51" height="53" fill="white" fill-opacity="0.12"/>
<rect x="50" y="946" width="51" height="53" fill="white" fill-opacity="0.12"/>
<rect x="101" y="946" width="50" height="53" fill="white" fill-opacity="0.12"/>
<rect x="151" y="946" width="49" height="53" fill="white" fill-opacity="0.12"/>
<rect x="151" y="893" width="49" height="53" fill="white" fill-opacity="0.12"/>
<rect x="200" y="893" width="50" height="53" fill="white" fill-opacity="0.12"/>
<rect x="250" y="893" width="51" height="53" fill="white" fill-opacity="0.12"/>
<rect x="250" y="946" width="51" height="53" fill="white" fill-opacity="0.12"/>
<rect x="250" y="999" width="51" height="52" fill="white" fill-opacity="0.12"/>
<rect x="301" y="999" width="50" height="52" fill="white" fill-opacity="0.12"/>
<rect x="301" y="946" width="50" height="53" fill="white" fill-opacity="0.12"/>
<rect x="351" y="946" width="50" height="53" fill="white" fill-opacity="0.12"/>
<rect x="401" y="946" width="50" height="53" fill="white" fill-opacity="0.12"/>
<rect x="401" y="893" width="50" height="53" fill="white" fill-opacity="0.12"/>
<rect x="351" y="893" width="50" height="53" fill="white" fill-opacity="0.12"/>
<rect x="451" y="893" width="51" height="53" fill="white" fill-opacity="0.12"/>
<rect x="502" y="893" width="50" height="53" fill="white" fill-opacity="0.12"/>
<rect x="502" y="946" width="50" height="53" fill="white" fill-opacity="0.12"/>
<rect x="552" y="946" width="49" height="53" fill="white" fill-opacity="0.12"/>
<rect x="601" y="946" width="50" height="53" fill="white" fill-opacity="0.12"/>
<rect x="651" y="946" width="51" height="53" fill="white" fill-opacity="0.12"/>
<rect x="651" y="893" width="51" height="53" fill="white" fill-opacity="0.12"/>
<rect x="702" y="893" width="50" height="53" fill="white" fill-opacity="0.12"/>
<rect x="752" y="893" width="50" height="53" fill="white" fill-opacity="0.12"/>
<rect x="802" y="893" width="53" height="53" fill="white" fill-opacity="0.12"/>
<rect x="802" y="946" width="51" height="53" fill="white" fill-opacity="0.12"/>
<rect x="853" y="946" width="50" height="53" fill="white" fill-opacity="0.12"/>
<rect x="853" y="999" width="50" height="52" fill="white" fill-opacity="0.12"/>
<rect x="903" y="999" width="50" height="52" fill="white" fill-opacity="0.12"/>
<rect x="953" y="999" width="49" height="52" fill="white" fill-opacity="0.12"/>
<rect x="1002" y="999" width="51" height="52" fill="white" fill-opacity="0.12"/>
<rect x="1053" y="999" width="50" height="52" fill="white" fill-opacity="0.12"/>
<rect x="1053" y="946" width="50" height="53" fill="white" fill-opacity="0.12"/>
<rect x="1052" y="946" width="50" height="53" fill="white" fill-opacity="0.12"/>
<rect x="1102" y="946" width="50" height="53" fill="white" fill-opacity="0.12"/>
<rect x="1102" y="893" width="50" height="53" fill="white" fill-opacity="0.12"/>
<rect x="1052" y="893" width="50" height="53" fill="white" fill-opacity="0.12"/>
<rect x="1002" y="893" width="50" height="53" fill="white" fill-opacity="0.12"/>
<rect x="1002" y="946" width="50" height="53" fill="white" fill-opacity="0.12"/>
<rect x="951" y="893" width="51" height="53" fill="white" fill-opacity="0.12"/>
<rect x="905" y="893" width="50" height="53" fill="white" fill-opacity="0.12"/>
<rect x="855" y="893" width="50" height="53" fill="white" fill-opacity="0.12"/>
<rect x="951" y="946" width="51" height="53" fill="white" fill-opacity="0.12"/>
<rect x="901" y="946" width="50" height="53" fill="white" fill-opacity="0.12"/>
<rect x="1152" y="893" width="50" height="53" fill="white" fill-opacity="0.12"/>
<rect x="1202" y="893" width="50" height="53" fill="white" fill-opacity="0.12"/>
<rect x="1252" y="893" width="50" height="53" fill="white" fill-opacity="0.12"/>
<rect x="1302" y="893" width="51" height="53" fill="white" fill-opacity="0.12"/>
<rect x="1353" y="893" width="50" height="53" fill="white" fill-opacity="0.12"/>
<rect x="1353" y="946" width="50" height="53" fill="white" fill-opacity="0.12"/>
<rect x="1353" y="999" width="50" height="52" fill="white" fill-opacity="0.12"/>
<rect x="1403" y="999" width="50" height="52" fill="white" fill-opacity="0.12"/>
<rect x="1453" y="999" width="50" height="52" fill="white" fill-opacity="0.12"/>
<rect x="1502" y="946" width="49" height="53" fill="white" fill-opacity="0.12"/>
<rect x="1502" y="893" width="49" height="53" fill="white" fill-opacity="0.12"/>
<rect x="1502" y="842" width="49" height="51" fill="white" fill-opacity="0.12"/>
<rect x="1502" y="788" width="49" height="54" fill="white" fill-opacity="0.12"/>
<rect x="1502" y="736" width="49" height="52" fill="white" fill-opacity="0.12"/>
<rect x="1502" y="683" width="49" height="53" fill="white" fill-opacity="0.12"/>
<rect x="1502" y="630" width="49" height="53" fill="white" fill-opacity="0.12"/>
<rect x="1451" y="630" width="51" height="53" fill="white" fill-opacity="0.12"/>
<rect x="1451" y="578" width="51" height="52" fill="white" fill-opacity="0.12"/>
<rect x="1451" y="526" width="51" height="52" fill="white" fill-opacity="0.12"/>
<rect x="1502" y="526" width="50" height="52" fill="white" fill-opacity="0.12"/>
<rect x="1502" y="473" width="50" height="53" fill="white" fill-opacity="0.12"/>
<rect x="1502" y="421" width="50" height="52" fill="white" fill-opacity="0.12"/>
<rect x="1454" y="421" width="50" height="52" fill="white" fill-opacity="0.12"/>
<rect x="1452" y="421" width="51" height="52" fill="white" fill-opacity="0.12"/>
<rect x="1454" y="473" width="50" height="53" fill="white" fill-opacity="0.12"/>
<rect x="1451" y="473" width="51" height="53" fill="white" fill-opacity="0.12"/>
<rect x="1454" y="368" width="50" height="53" fill="white" fill-opacity="0.12"/>
<rect x="1452" y="368" width="51" height="53" fill="white" fill-opacity="0.12"/>
<rect x="1454" y="315" width="50" height="53" fill="white" fill-opacity="0.12"/>
<rect x="1452" y="315" width="51" height="53" fill="white" fill-opacity="0.12"/>
<rect x="1454" y="263" width="50" height="52" fill="white" fill-opacity="0.12"/>
<rect x="1452" y="263" width="51" height="52" fill="white" fill-opacity="0.12"/>
<rect x="1454" y="209" width="50" height="54" fill="white" fill-opacity="0.12"/>
<rect x="1452" y="209" width="51" height="54" fill="white" fill-opacity="0.12"/>
<rect x="1502" y="202" width="50" height="52" fill="white" fill-opacity="0.12"/>
<rect x="1502" y="148" width="50" height="54" fill="white" fill-opacity="0.12"/>
<rect x="1502" y="97" width="50" height="51" fill="white" fill-opacity="0.12"/>
<rect x="1452" y="105" width="51" height="53" fill="white" fill-opacity="0.12"/>
<rect x="1453" y="52" width="50" height="53" fill="white" fill-opacity="0.12"/>
<rect x="1404" y="52" width="50" height="53" fill="white" fill-opacity="0.12"/>
<rect x="1354" y="52" width="50" height="53" fill="white" fill-opacity="0.12"/>
<rect x="1304" y="52" width="50" height="53" fill="white" fill-opacity="0.12"/>
<rect x="1304" width="50" height="52" fill="white" fill-opacity="0.12"/>
<rect x="1254" width="50" height="52" fill="white" fill-opacity="0.12"/>
<rect x="1203" width="51" height="52" fill="white" fill-opacity="0.12"/>
<rect x="1203" y="52" width="51" height="53" fill="white" fill-opacity="0.12"/>
<rect x="1153" y="52" width="50" height="53" fill="white" fill-opacity="0.12"/>
<rect x="1103" y="52" width="50" height="53" fill="white" fill-opacity="0.12"/>
<rect x="1054" y="52" width="50" height="53" fill="white" fill-opacity="0.12"/>
<rect x="1054" width="50" height="52" fill="white" fill-opacity="0.12"/>
<rect x="1004" width="50" height="52" fill="white" fill-opacity="0.12"/>
<rect x="954" width="50" height="52" fill="white" fill-opacity="0.12"/>
<rect x="955" y="52" width="50" height="53" fill="white" fill-opacity="0.12"/>
<rect x="905" y="52" width="50" height="53" fill="white" fill-opacity="0.12"/>
<rect x="903" y="105" width="50" height="53" fill="white" fill-opacity="0.12"/>
<rect x="853" y="105" width="50" height="53" fill="white" fill-opacity="0.12"/>
<rect x="805" y="105" width="50" height="53" fill="white" fill-opacity="0.12"/>
<rect x="802" y="105" width="51" height="53" fill="white" fill-opacity="0.12"/>
<rect x="752" y="105" width="50" height="53" fill="white" fill-opacity="0.12"/>
<rect x="702" y="105" width="50" height="53" fill="white" fill-opacity="0.12"/>
<rect x="651" y="105" width="51" height="53" fill="white" fill-opacity="0.12"/>
<rect x="654" y="52" width="50" height="53" fill="white" fill-opacity="0.12"/>
<rect x="604" y="52" width="50" height="53" fill="white" fill-opacity="0.12"/>
<rect x="604" width="50" height="52" fill="white" fill-opacity="0.12"/>
<rect x="554" width="50" height="52" fill="white" fill-opacity="0.12"/>
<rect x="554" y="52" width="50" height="53" fill="white" fill-opacity="0.12"/>
<rect x="505" y="52" width="50" height="53" fill="white" fill-opacity="0.12"/>
<rect x="454" y="52" width="51" height="53" fill="white" fill-opacity="0.12"/>
<rect x="404" y="52" width="50" height="53" fill="white" fill-opacity="0.12"/>
<rect x="404" width="50" height="52" fill="white" fill-opacity="0.12"/>
<rect x="354" width="50" height="52" fill="white" fill-opacity="0.12"/>
<rect x="356" y="52" width="50" height="53" fill="white" fill-opacity="0.12"/>
<rect x="312" y="52" width="50" height="53" fill="white" fill-opacity="0.12"/>
<rect x="262" y="52" width="50" height="53" fill="white" fill-opacity="0.12"/>
<rect x="213" y="52" width="51" height="53" fill="white" fill-opacity="0.12"/>
<rect x="163" y="52" width="50" height="53" fill="white" fill-opacity="0.12"/>
<rect x="1202" y="946" width="50" height="53" fill="white" fill-opacity="0.12"/>
<rect y="893" width="50" height="53" fill="white" fill-opacity="0.12"/>
<rect y="842" width="50" height="51" fill="white" fill-opacity="0.12"/>
</svg>